<?xml version="1.0" standalone="no"?>
<!DOCTYPE svg PUBLIC "-//W3C//DTD SVG 20010904//EN"
 "http://www.w3.org/TR/2001/REC-SVG-20010904/DTD/svg10.dtd">
<svg version="1.0" xmlns="http://www.w3.org/2000/svg"
 width="500.000000pt" height="500.000000pt" viewBox="0 0 500.000000 500.000000"
 preserveAspectRatio="xMidYMid meet">

<g transform="translate(0.000000,500.000000) scale(0.100000,-0.100000)"
fill="#000000" stroke="none">
<path d="M4124 4145 l-115 -115 51 -31 c27 -17 50 -34 50 -38 0 -4 -22 -25
-48 -47 -27 -21 -73 -60 -103 -86 -30 -25 -121 -103 -204 -171 -82 -69 -242
-203 -355 -297 -113 -95 -217 -177 -232 -182 -16 -6 -28 -15 -28 -22 0 -7 33
-35 72 -62 40 -27 99 -71 132 -98 l59 -50 -33 -25 c-18 -14 -216 -151 -439
-303 -851 -580 -804 -546 -798 -577 2 -14 13 -68 23 -119 l19 -94 35 6 c19 3
49 8 66 12 30 6 30 5 79 -98 26 -56 83 -177 127 -266 43 -90 78 -168 78 -173
0 -11 -12 -11 -102 1 -175 23 -288 29 -404 20 -139 -12 -227 -39 -285 -88
l-39 -34 -40 35 c-39 33 -128 145 -171 215 -12 17 -24 32 -29 32 -17 0 -19
-33 -3 -61 20 -34 18 -36 -57 -77 -30 -16 -77 -42 -105 -57 -52 -29 -575 -539
-575 -561 0 -16 146 -152 240 -223 347 -264 751 -431 1165 -480 55 -7 133 -17
173 -22 201 -25 546 9 822 82 427 113 811 338 1127 660 255 260 412 500 540
824 102 256 147 462 173 787 31 374 -63 852 -237 1213 -110 228 -254 440 -419
615 -37 38 -73 70 -80 70 -8 0 -66 -52 -130 -115z m-540 -1392 c53 -329 74
-461 82 -519 l6 -50 -418 -83 c-231 -46 -531 -105 -669 -132 -137 -27 -272
-53 -298 -59 -27 -5 -54 -10 -62 -10 -14 0 -57 125 -49 144 3 6 60 48 127 93
67 46 176 120 242 165 66 46 307 211 535 367 228 156 422 290 430 297 8 8 19
14 25 14 7 0 26 -89 49 -227z m-966 -1019 c53 -54 150 -142 215 -196 202 -170
294 -276 380 -438 97 -181 144 -338 122 -404 -19 -54 -58 -100 -129 -151 -70
-50 -186 -106 -200 -98 -7 5 -77 146 -141 288 -10 22 -32 72 -50 110 -18 39
-65 140 -103 225 -39 85 -95 208 -126 273 -31 65 -56 120 -56 123 0 2 -31 69
-69 148 -88 184 -88 184 -59 190 39 8 113 24 116 25 1 0 46 -42 100 -95z
m-228 -474 c69 -7 135 -17 148 -24 16 -8 42 -53 88 -153 35 -79 64 -150 64
-158 0 -8 -21 -54 -47 -103 -27 -48 -53 -96 -58 -107 -13 -24 -43 -25 -160 -6
-326 54 -579 63 -768 26 -95 -18 -87 -18 -87 -1 0 30 177 427 203 455 76 83
271 105 617 71z"/>
<path d="M2056 1209 c-89 -10 -166 -28 -193 -45 -12 -7 -43 -58 -69 -111 -25
-54 -51 -107 -57 -118 -5 -11 -7 -18 -4 -15 8 8 68 89 120 162 33 47 56 69 79
77 58 18 168 41 199 41 18 0 28 4 24 10 -3 6 -12 9 -18 9 -7 -1 -43 -5 -81
-10z"/>
<path d="M2388 3333 c7 -3 16 -2 19 1 4 3 -2 6 -13 5 -11 0 -14 -3 -6 -6z"/>
<path d="M2305 3320 c-7 -11 38 -24 57 -17 8 3 6 6 -5 6 -10 1 -15 6 -12 11 3
6 -3 10 -14 10 -11 0 -23 -4 -26 -10z"/>
<path d="M1325 2230 c-4 -12 -5 -24 -2 -27 3 -2 8 5 12 17 4 12 5 24 2 27 -3
2 -8 -5 -12 -17z"/>
<path d="M1341 1894 c0 -11 3 -14 6 -6 3 7 2 16 -1 19 -3 4 -6 -2 -5 -13z"/>
<path d="M1638 1638 l-26 -33 39 -77 c22 -43 44 -78 49 -78 6 0 26 6 45 14
l35 15 -46 78 c-74 124 -67 119 -96 81z"/>
</g>
</svg>
